<svg width="8" height="32" viewBox="0 0 8 32" fill="none" xmlns="http://www.w3.org/2000/svg">
<path d="M7.95393 27.8388C7.95393 28.8935 7.53493 29.9051 6.78911 30.6509C6.04328 31.3967 5.03172 31.8157 3.97697 31.8157C2.92221 31.8157 1.91065 31.3967 1.16483 30.6509C0.419001 29.9051 0 28.8935 0 27.8388C0 26.784 0.419001 25.7725 1.16483 25.0266C1.91065 24.2808 2.92221 23.8618 3.97697 23.8618C5.03172 23.8618 6.04328 24.2808 6.78911 25.0266C7.53493 25.7725 7.95393 26.784 7.95393 27.8388ZM7.95393 15.9079C7.95393 16.9626 7.53493 17.9742 6.78911 18.72C6.04328 19.4658 5.03172 19.8848 3.97697 19.8848C2.92221 19.8848 1.91065 19.4658 1.16483 18.72C0.419001 17.9742 0 16.9626 0 15.9079C0 14.8531 0.419001 13.8416 1.16483 13.0957C1.91065 12.3499 2.92221 11.9309 3.97697 11.9309C5.03172 11.9309 6.04328 12.3499 6.78911 13.0957C7.53493 13.8416 7.95393 14.8531 7.95393 15.9079ZM3.97697 7.95393C5.03172 7.95393 6.04328 7.53493 6.78911 6.78911C7.53493 6.04328 7.95393 5.03172 7.95393 3.97697C7.95393 2.92221 7.53493 1.91065 6.78911 1.16483C6.04328 0.419 5.03172 0 3.97697 0C2.92221 0 1.91065 0.419 1.16483 1.16483C0.419001 1.91065 0 2.92221 0 3.97697C0 5.03172 0.419001 6.04328 1.16483 6.78911C1.91065 7.53493 2.92221 7.95393 3.97697 7.95393Z" fill="#1E1E1E"/>
</svg>
