<svg width="48" height="48" viewBox="0 0 48 48" fill="none" xmlns="http://www.w3.org/2000/svg">
<path d="M7.95396 39.7697C6.86029 39.7697 5.92438 39.3806 5.14622 38.6024C4.36806 37.8243 3.97832 36.8877 3.97699 35.7927V11.9309C3.97699 10.8372 4.36673 9.90132 5.14622 9.12316C5.9257 8.345 6.86162 7.95526 7.95396 7.95393H39.7697C40.8634 7.95393 41.7999 8.34368 42.5794 9.12316C43.3589 9.90265 43.748 10.8386 43.7467 11.9309V35.7927C43.7467 36.8864 43.3576 37.8229 42.5794 38.6024C41.8013 39.3819 40.8647 39.771 39.7697 39.7697H7.95396ZM19.8849 35.7927H39.7697V11.9309H19.8849V35.7927ZM15.9079 35.7927V11.9309H7.95396V35.7927H15.9079Z" fill="#1E1E1E"/>
</svg>
