<?xml version="1.0" encoding="UTF-8"?>
<svg version="1.1" xmlns="http://www.w3.org/2000/svg" width="1028" height="960">
<path d="M0 0 C339.24 0 678.48 0 1028 0 C1028 316.8 1028 633.6 1028 960 C688.76 960 349.52 960 0 960 C0 643.2 0 326.4 0 0 Z " fill="#0E1923" transform="translate(0,0)"/>
<path d="M0 0 C1.20132253 -0.00551949 2.40264505 -0.01103897 3.64037129 -0.01672572 C4.95410426 -0.01261508 6.26783722 -0.00850444 7.62138027 -0.00426924 C9.04165167 -0.00696297 10.46192163 -0.010531 11.88218889 -0.01489371 C15.797766 -0.02436439 19.71325025 -0.02134696 23.62883197 -0.01633817 C27.88398371 -0.01307623 32.13911539 -0.02135018 36.39426076 -0.02815652 C43.85638513 -0.03847423 51.31848353 -0.04129724 58.78061432 -0.03924429 C69.87726529 -0.03619887 80.97388747 -0.04450816 92.07053285 -0.05499355 C113.04180365 -0.07435537 134.01306468 -0.0799626 154.98434336 -0.08110766 C171.17879118 -0.08202612 187.37323516 -0.08613956 203.56768173 -0.09250891 C208.22631239 -0.09430396 212.88494306 -0.09608359 217.54357374 -0.09785867 C218.70167311 -0.09830076 219.85977249 -0.09874286 221.05296578 -0.09919835 C253.63778959 -0.11151043 286.22261207 -0.11939912 318.80743831 -0.1185118 C320.65098772 -0.11846506 320.65098772 -0.11846506 322.53178056 -0.11841738 C328.76126454 -0.11825116 334.99074851 -0.11805308 341.22023249 -0.11784796 C342.45746575 -0.11780807 343.69469901 -0.11776818 344.96942419 -0.11772708 C347.47141341 -0.11764621 349.97340264 -0.11756261 352.47539187 -0.1174763 C391.39985766 -0.11625087 430.32428861 -0.13126108 469.24874443 -0.15862143 C512.9644525 -0.18933681 556.68013767 -0.20655422 600.39585721 -0.20469499 C605.05668837 -0.20454572 609.71751952 -0.20444831 614.37835068 -0.20438635 C615.52599322 -0.20436304 616.67363577 -0.20433974 617.85605537 -0.20431572 C636.33267491 -0.20425415 654.80926423 -0.21703147 673.28587478 -0.23425088 C691.85393985 -0.25119766 710.42196065 -0.25318872 728.99002916 -0.24003224 C740.02298184 -0.23263645 751.05580015 -0.23631983 762.08873862 -0.25591692 C769.45937613 -0.26790333 776.82991618 -0.26534073 784.20054919 -0.25097592 C788.39962669 -0.24320158 792.59844389 -0.24169371 796.79750318 -0.25789063 C800.62288705 -0.27251679 804.44779541 -0.26849633 808.2731586 -0.25004289 C810.28605728 -0.24501415 812.29897645 -0.25947208 814.31182238 -0.27488846 C827.41729391 -0.17272367 839.27983226 2.91132599 848.90621513 12.13581216 C855.84958403 19.62231985 860.18569642 28.45566021 860.19864029 38.78025281 C860.20508918 40.08348857 860.21153807 41.38672433 860.21818238 42.72945207 C860.21524032 44.1688253 860.21210491 45.60819815 860.20879692 47.04757059 C860.21253438 48.58203672 860.21713628 50.11650096 860.22252756 51.65096217 C860.23476168 55.86511698 860.2344966 60.07919243 860.23213881 64.29336095 C860.23173074 68.83957133 860.24276907 73.38575623 860.25225395 77.93195474 C860.26886835 86.83898199 860.27436374 95.74598276 860.27547871 104.6530242 C860.27642919 111.89533693 860.28053952 119.13764092 860.28687996 126.37995088 C860.30449536 146.9195509 860.31371863 167.45913002 860.31221901 187.99873764 C860.31209914 189.65974993 860.31209914 189.65974993 860.31197685 191.35431802 C860.31189509 192.46301429 860.31181333 193.57171055 860.31172909 194.71400367 C860.31091662 212.67211971 860.33004368 230.63015179 860.35825358 248.58824355 C860.38699998 267.03369467 860.40079284 285.47910488 860.39906603 303.92457896 C860.39840263 314.27769579 860.40387299 324.63072465 860.42542213 334.98382127 C860.44365725 343.80121757 860.4479623 352.61848605 860.43440329 361.43589307 C860.42788475 365.93170133 860.42771589 370.42726456 860.44510978 374.92304933 C860.46089562 379.04576516 860.45792108 383.16804279 860.44054152 387.29074829 C860.43748364 388.77531461 860.44105793 390.25991409 860.45226167 391.74444128 C860.55267489 406.00382971 857.94544808 418.38749767 848.19918388 429.18268716 C840.32709516 436.79346173 829.82393573 440.3740664 819.00463992 440.38180083 C817.80505224 440.38507302 816.60546456 440.38834522 815.36952573 440.39171657 C814.05259406 440.39023295 812.73566239 440.38874932 811.3788237 440.38722074 C809.95911377 440.38917402 808.53940438 440.391563 807.11969584 440.39434871 C803.2010499 440.40075482 799.28242444 440.40090985 795.36377426 440.4000713 C791.10704292 440.40024068 786.85031895 440.40614545 782.59359127 440.41131216 C774.14309078 440.42064501 765.69259554 440.42456136 757.24209054 440.42683113 C747.1232929 440.42979139 737.00450222 440.43848771 726.88570823 440.44724541 C702.4274197 440.46809721 677.96912995 440.47856045 653.5108346 440.48737502 C641.94361632 440.49158015 630.37639856 440.4968023 618.80918072 440.50205955 C579.22405884 440.51994965 539.63893681 440.53494664 500.05381149 440.54237974 C497.56831436 440.5428545 495.08281722 440.54333038 492.59732009 440.5438074 C491.36472215 440.54404377 490.13212422 440.54428015 488.86217483 440.54452369 C482.6170893 440.5457249 476.37200378 440.54694035 470.12691826 440.54816568 C468.88755676 440.54840583 467.64819526 440.54864598 466.37127736 440.54889341 C426.17656242 440.5567886 385.98187696 440.58022503 345.7871749 440.61272162 C303.30457517 440.64700532 260.82199269 440.66672948 218.33937889 440.67002398 C213.67744463 440.67044153 209.01551038 440.67092109 204.35357612 440.67144716 C203.20565223 440.67157035 202.05772833 440.67169354 200.87501887 440.67182047 C182.38771882 440.67415421 163.90045297 440.68982383 145.41316512 440.710289 C126.83717403 440.73052645 108.26122411 440.73603415 89.68522404 440.72651837 C78.64518794 440.72129545 67.60528871 440.72721825 56.56527226 440.74905304 C49.19243501 440.76253475 41.81969224 440.76150742 34.44685411 440.74865108 C30.24485831 440.74173699 26.04312466 440.74114435 21.841152 440.75821117 C18.01545431 440.77362317 14.19022931 440.77048569 10.36454554 440.75280089 C8.34662698 440.74818482 6.32869227 440.76312888 4.31083053 440.77896068 C-9.1054506 440.67683819 -18.02268913 436.68487081 -27.77347237 427.66706216 C-35.14333395 419.97840249 -38.17629028 409.26105661 -38.1928497 398.84320772 C-38.19730754 397.54072961 -38.20176538 396.23825151 -38.20635831 394.89630437 C-38.20626902 393.45261124 -38.20607918 392.00891811 -38.20579964 390.56522501 C-38.20909998 389.03019787 -38.2128259 387.4951716 -38.21694112 385.96014643 C-38.22694979 381.73989157 -38.23067608 377.51965094 -38.23333043 373.29938591 C-38.2372368 368.74843083 -38.24681485 364.19748699 -38.25554329 359.64653909 C-38.27529744 348.65552226 -38.28537221 337.66450452 -38.29427108 326.67347437 C-38.29865537 321.49666519 -38.30402178 316.31985702 -38.30925995 311.14304864 C-38.32627055 293.93296589 -38.34076485 276.72288377 -38.34800869 259.5127939 C-38.34991856 255.04761508 -38.3518389 250.58243627 -38.35379463 246.11725748 C-38.35427837 245.00747109 -38.35476211 243.8976847 -38.35526051 242.75426842 C-38.36356133 224.77534232 -38.3888999 206.79648274 -38.42137531 188.81758569 C-38.45444996 170.35636036 -38.47245779 151.89516883 -38.47565293 133.43391371 C-38.47781756 123.06966157 -38.48655944 112.70550646 -38.51211411 102.3412832 C-38.53382655 93.51502873 -38.54186879 84.68889486 -38.53214733 75.8626167 C-38.52760434 71.36098257 -38.52948885 66.85959726 -38.54890877 62.3579973 C-38.56655315 58.23226988 -38.56553253 54.10697259 -38.55001148 49.98124053 C-38.54763735 48.49331193 -38.55194886 47.00535344 -38.56384013 45.51747046 C-38.6641361 32.13277185 -36.27600952 22.20932671 -27.05862862 12.25299966 C-19.80454857 4.90044793 -10.46573365 0.00590592 0 0 Z " fill="#32A1CF" transform="translate(105.0586286187172,253.74700033664703)"/>
<path d="M0 0 C1.20132253 -0.00551949 2.40264505 -0.01103897 3.64037129 -0.01672572 C4.95410426 -0.01261508 6.26783722 -0.00850444 7.62138027 -0.00426924 C9.04165167 -0.00696297 10.46192163 -0.010531 11.88218889 -0.01489371 C15.797766 -0.02436439 19.71325025 -0.02134696 23.62883197 -0.01633817 C27.88398371 -0.01307623 32.13911539 -0.02135018 36.39426076 -0.02815652 C43.85638513 -0.03847423 51.31848353 -0.04129724 58.78061432 -0.03924429 C69.87726529 -0.03619887 80.97388747 -0.04450816 92.07053285 -0.05499355 C113.04180365 -0.07435537 134.01306468 -0.0799626 154.98434336 -0.08110766 C171.17879118 -0.08202612 187.37323516 -0.08613956 203.56768173 -0.09250891 C208.22631239 -0.09430396 212.88494306 -0.09608359 217.54357374 -0.09785867 C218.70167311 -0.09830076 219.85977249 -0.09874286 221.05296578 -0.09919835 C253.63778959 -0.11151043 286.22261207 -0.11939912 318.80743831 -0.1185118 C320.65098772 -0.11846506 320.65098772 -0.11846506 322.53178056 -0.11841738 C328.76126454 -0.11825116 334.99074851 -0.11805308 341.22023249 -0.11784796 C342.45746575 -0.11780807 343.69469901 -0.11776818 344.96942419 -0.11772708 C347.47141341 -0.11764621 349.97340264 -0.11756261 352.47539187 -0.1174763 C391.39985766 -0.11625087 430.32428861 -0.13126108 469.24874443 -0.15862143 C512.9644525 -0.18933681 556.68013767 -0.20655422 600.39585721 -0.20469499 C605.05668837 -0.20454572 609.71751952 -0.20444831 614.37835068 -0.20438635 C615.52599322 -0.20436304 616.67363577 -0.20433974 617.85605537 -0.20431572 C636.33267491 -0.20425415 654.80926423 -0.21703147 673.28587478 -0.23425088 C691.85393985 -0.25119766 710.42196065 -0.25318872 728.99002916 -0.24003224 C740.02298184 -0.23263645 751.05580015 -0.23631983 762.08873862 -0.25591692 C769.45937613 -0.26790333 776.82991618 -0.26534073 784.20054919 -0.25097592 C788.39962669 -0.24320158 792.59844389 -0.24169371 796.79750318 -0.25789063 C800.62288705 -0.27251679 804.44779541 -0.26849633 808.2731586 -0.25004289 C810.28605728 -0.24501415 812.29897645 -0.25947208 814.31182238 -0.27488846 C827.41729391 -0.17272367 839.27983226 2.91132599 848.90621513 12.13581216 C855.84958403 19.62231985 860.18569642 28.45566021 860.19864029 38.78025281 C860.20508918 40.08348857 860.21153807 41.38672433 860.21818238 42.72945207 C860.21524032 44.1688253 860.21210491 45.60819815 860.20879692 47.04757059 C860.21253438 48.58203672 860.21713628 50.11650096 860.22252756 51.65096217 C860.23476168 55.86511698 860.2344966 60.07919243 860.23213881 64.29336095 C860.23173074 68.83957133 860.24276907 73.38575623 860.25225395 77.93195474 C860.26886835 86.83898199 860.27436374 95.74598276 860.27547871 104.6530242 C860.27642919 111.89533693 860.28053952 119.13764092 860.28687996 126.37995088 C860.30449536 146.9195509 860.31371863 167.45913002 860.31221901 187.99873764 C860.31209914 189.65974993 860.31209914 189.65974993 860.31197685 191.35431802 C860.31189509 192.46301429 860.31181333 193.57171055 860.31172909 194.71400367 C860.31091662 212.67211971 860.33004368 230.63015179 860.35825358 248.58824355 C860.38699998 267.03369467 860.40079284 285.47910488 860.39906603 303.92457896 C860.39840263 314.27769579 860.40387299 324.63072465 860.42542213 334.98382127 C860.44365725 343.80121757 860.4479623 352.61848605 860.43440329 361.43589307 C860.42788475 365.93170133 860.42771589 370.42726456 860.44510978 374.92304933 C860.46089562 379.04576516 860.45792108 383.16804279 860.44054152 387.29074829 C860.43748364 388.77531461 860.44105793 390.25991409 860.45226167 391.74444128 C860.55267489 406.00382971 857.94544808 418.38749767 848.19918388 429.18268716 C840.32709516 436.79346173 829.82393573 440.3740664 819.00463992 440.38180083 C817.80505224 440.38507302 816.60546456 440.38834522 815.36952573 440.39171657 C814.05259406 440.39023295 812.73566239 440.38874932 811.3788237 440.38722074 C809.95911377 440.38917402 808.53940438 440.391563 807.11969584 440.39434871 C803.2010499 440.40075482 799.28242444 440.40090985 795.36377426 440.4000713 C791.10704292 440.40024068 786.85031895 440.40614545 782.59359127 440.41131216 C774.14309078 440.42064501 765.69259554 440.42456136 757.24209054 440.42683113 C747.1232929 440.42979139 737.00450222 440.43848771 726.88570823 440.44724541 C702.4274197 440.46809721 677.96912995 440.47856045 653.5108346 440.48737502 C641.94361632 440.49158015 630.37639856 440.4968023 618.80918072 440.50205955 C579.22405884 440.51994965 539.63893681 440.53494664 500.05381149 440.54237974 C497.56831436 440.5428545 495.08281722 440.54333038 492.59732009 440.5438074 C491.36472215 440.54404377 490.13212422 440.54428015 488.86217483 440.54452369 C482.6170893 440.5457249 476.37200378 440.54694035 470.12691826 440.54816568 C468.88755676 440.54840583 467.64819526 440.54864598 466.37127736 440.54889341 C426.17656242 440.5567886 385.98187696 440.58022503 345.7871749 440.61272162 C303.30457517 440.64700532 260.82199269 440.66672948 218.33937889 440.67002398 C213.67744463 440.67044153 209.01551038 440.67092109 204.35357612 440.67144716 C203.20565223 440.67157035 202.05772833 440.67169354 200.87501887 440.67182047 C182.38771882 440.67415421 163.90045297 440.68982383 145.41316512 440.710289 C126.83717403 440.73052645 108.26122411 440.73603415 89.68522404 440.72651837 C78.64518794 440.72129545 67.60528871 440.72721825 56.56527226 440.74905304 C49.19243501 440.76253475 41.81969224 440.76150742 34.44685411 440.74865108 C30.24485831 440.74173699 26.04312466 440.74114435 21.841152 440.75821117 C18.01545431 440.77362317 14.19022931 440.77048569 10.36454554 440.75280089 C8.34662698 440.74818482 6.32869227 440.76312888 4.31083053 440.77896068 C-9.1054506 440.67683819 -18.02268913 436.68487081 -27.77347237 427.66706216 C-35.14333395 419.97840249 -38.17629028 409.26105661 -38.1928497 398.84320772 C-38.19730754 397.54072961 -38.20176538 396.23825151 -38.20635831 394.89630437 C-38.20626902 393.45261124 -38.20607918 392.00891811 -38.20579964 390.56522501 C-38.20909998 389.03019787 -38.2128259 387.4951716 -38.21694112 385.96014643 C-38.22694979 381.73989157 -38.23067608 377.51965094 -38.23333043 373.29938591 C-38.2372368 368.74843083 -38.24681485 364.19748699 -38.25554329 359.64653909 C-38.27529744 348.65552226 -38.28537221 337.66450452 -38.29427108 326.67347437 C-38.29865537 321.49666519 -38.30402178 316.31985702 -38.30925995 311.14304864 C-38.32627055 293.93296589 -38.34076485 276.72288377 -38.34800869 259.5127939 C-38.34991856 255.04761508 -38.3518389 250.58243627 -38.35379463 246.11725748 C-38.35427837 245.00747109 -38.35476211 243.8976847 -38.35526051 242.75426842 C-38.36356133 224.77534232 -38.3888999 206.79648274 -38.42137531 188.81758569 C-38.45444996 170.35636036 -38.47245779 151.89516883 -38.47565293 133.43391371 C-38.47781756 123.06966157 -38.48655944 112.70550646 -38.51211411 102.3412832 C-38.53382655 93.51502873 -38.54186879 84.68889486 -38.53214733 75.8626167 C-38.52760434 71.36098257 -38.52948885 66.85959726 -38.54890877 62.3579973 C-38.56655315 58.23226988 -38.56553253 54.10697259 -38.55001148 49.98124053 C-38.54763735 48.49331193 -38.55194886 47.00535344 -38.56384013 45.51747046 C-38.6641361 32.13277185 -36.27600952 22.20932671 -27.05862862 12.25299966 C-19.80454857 4.90044793 -10.46573365 0.00590592 0 0 Z M5.69918388 75.75299966 C-0.92145872 85.16902469 -2.20668366 94.24919269 -2.21252877 105.45394266 C-2.21691102 106.47895204 -2.22129327 107.50396143 -2.22580832 108.56003171 C-2.23915933 111.99357827 -2.24536688 115.42709918 -2.25149971 118.86066568 C-2.25940357 121.32318618 -2.2676727 123.78570552 -2.27627999 126.24822366 C-2.30020566 133.63627834 -2.31542195 141.02432876 -2.32834005 148.41240886 C-2.3320559 150.50116143 -2.3360288 152.58991336 -2.34009272 154.67866528 C-2.36533119 167.66656666 -2.38737086 180.65446918 -2.39982086 193.64238966 C-2.40275025 196.64744004 -2.40571196 199.65249038 -2.40872627 202.65754068 C-2.40947233 203.40437256 -2.41021838 204.15120443 -2.41098703 204.92066758 C-2.42363231 217.01044683 -2.45684794 229.10007875 -2.49852811 241.18978918 C-2.54102559 253.61904925 -2.5645248 266.04823404 -2.56974143 278.47756654 C-2.5731465 285.44932106 -2.58479449 292.42084522 -2.61784416 299.39252794 C-2.64890347 305.95483092 -2.65421788 312.51680661 -2.64246041 319.07919633 C-2.64224011 321.48130416 -2.65050858 323.88343086 -2.66811424 326.28547418 C-2.78690821 343.4331981 -1.81546305 356.87297332 10.49215263 369.89362466 C18.2346774 377.2111421 28.02835792 380.37221717 38.53192186 380.3829515 C40.17694647 380.38824413 40.17694647 380.38824413 41.8552039 380.39364368 C43.05181964 380.3924459 44.24843539 380.39124812 45.48131222 380.39001405 C47.40553556 380.39399179 47.40553556 380.39399179 49.36863211 380.39804989 C52.93851626 380.40527556 56.50837937 380.40627917 60.07826985 380.40627266 C63.95870711 380.40734296 67.83913506 380.41413475 71.71956718 380.42017937 C79.42007858 380.43124954 87.12058542 380.43690224 94.82110338 380.44088824 C104.04315791 380.44589895 113.26520361 380.45662665 122.48725293 380.46736998 C144.77732104 380.49299504 167.06739258 380.50803417 189.35747119 380.52088045 C196.7396972 380.5251353 204.12192296 380.52970102 211.50414866 380.53446376 C250.75389154 380.55972231 290.00363484 380.58177095 329.25338405 380.59419191 C338.34640133 380.59711324 347.43941859 380.60008077 356.53243583 380.60309732 C358.2269762 380.60365368 358.2269762 380.60365368 359.9557497 380.60422129 C396.58917935 380.6163788 433.22256097 380.64732686 469.85596806 380.68901884 C507.5149764 380.73179992 545.17395937 380.75843201 582.83299266 380.76366662 C588.15120753 380.76440707 593.46942235 380.76531776 598.78763717 380.7663244 C599.83430974 380.76651502 600.8809823 380.76670563 601.95937221 380.76690202 C618.80693845 380.77041622 635.65444455 380.79071682 652.50198869 380.81712104 C669.43455468 380.8432585 686.36705113 380.85099608 703.2996344 380.84001975 C713.35948622 380.83404103 723.41910226 380.84196475 733.47891841 380.86985058 C740.20090537 380.88710526 746.92273161 380.88615122 753.64472201 380.8704829 C757.47338034 380.86207403 761.30158883 380.86147801 765.1302054 380.88309436 C769.26065738 380.90622701 773.39007152 380.89041903 777.52054256 380.87103212 C778.70077014 380.88388134 779.88099773 380.89673056 781.09698978 380.90996915 C792.67150166 380.79058181 803.36752583 377.19757215 811.94137138 369.25299966 C812.48277763 368.75284341 813.02418388 368.25268716 813.58199638 367.73737466 C819.52882076 361.55027455 824.05870101 351.57889698 824.07279915 342.96059453 C824.07664029 342.0794893 824.08048144 341.19838406 824.08443898 340.29057866 C824.08313926 338.83730337 824.08313926 338.83730337 824.08181328 337.35466897 C824.0847844 336.32602261 824.08775552 335.29737625 824.09081668 334.23755878 C824.09952201 330.77386623 824.10101349 327.31020816 824.10250419 323.84650552 C824.10713116 321.3697083 824.11215566 318.89291179 824.11754936 316.41611612 C824.13068922 309.67410048 824.13715838 302.9320984 824.14156002 296.19007313 C824.1443229 291.97861595 824.14856044 287.76716106 824.15306419 283.55570543 C824.16525913 271.89161038 824.17555679 260.22751717 824.17893928 248.56341588 C824.17926863 247.44338889 824.17926863 247.44338889 824.17960463 246.30073509 C824.17982291 245.55227214 824.18004119 244.80380919 824.18026608 244.03266555 C824.18070955 242.51602236 824.18115611 240.99937918 824.18160576 239.48273599 C824.1819379 238.3542771 824.1819379 238.3542771 824.18227676 237.20302106 C824.1862214 225.02377063 824.20366419 212.84458016 824.22696528 200.66535287 C824.25070435 188.15596995 824.26314236 175.64661707 824.2643072 163.13721126 C824.26522273 156.11583196 824.27094374 149.09453069 824.28912681 142.07317293 C824.30617954 135.46500348 824.30776127 128.85695571 824.29898781 122.24876153 C824.29821755 119.82605662 824.30255866 117.40334375 824.31244606 114.98065889 C824.32517404 111.66700236 824.3192836 108.3538691 824.30886406 105.04021585 C824.31692046 104.0869807 824.32497687 103.13374556 824.3332774 102.1516245 C824.249826 90.76246118 820.66750189 80.40328799 812.83199638 71.98737466 C801.77997487 61.69756154 790.78043908 59.94395246 776.05793518 59.99852407 C774.77443564 59.99531759 773.49093609 59.99211111 772.16854262 59.98880747 C768.61071034 59.980207 765.05298388 59.98400577 761.49515002 59.98986319 C757.62262098 59.99403921 753.75011105 59.98662831 749.87758666 59.98071069 C743.09196627 59.97194978 736.30637606 59.97063619 729.52075142 59.97421396 C719.43020903 59.97952024 709.33969587 59.97342641 699.24915666 59.96513102 C680.17945221 59.94988506 661.10976104 59.94818656 642.04005177 59.95065405 C627.31543381 59.95248619 612.59082019 59.95072877 597.86620277 59.94642961 C595.75127577 59.94582721 593.63634876 59.94522601 591.52142175 59.94462601 C588.33449466 59.94371876 585.14756756 59.9428101 581.96064047 59.94189366 C552.32764113 59.93346323 522.69464343 59.92912907 493.06164306 59.93330038 C491.38573685 59.93353494 491.38573685 59.93353494 489.67597394 59.93377424 C484.01310771 59.93458003 478.35024149 59.93542581 472.68737526 59.93628754 C471.00035803 59.93654418 471.00035803 59.93654418 469.27925963 59.93680599 C467.00488725 59.93715265 464.73051486 59.93750118 462.45614248 59.93785158 C427.06237429 59.94320947 391.66863101 59.9352768 356.27486748 59.91681802 C316.51631704 59.89610722 276.75778204 59.88537352 236.99922591 59.88939351 C232.76087445 59.88978886 228.52252299 59.89015041 224.28417152 59.89049089 C223.24056991 59.89058162 222.19696831 59.89067235 221.12174241 59.89076583 C205.36029923 59.89193232 189.59887162 59.88527962 173.83743232 59.87467897 C155.91491214 59.86263719 137.99242628 59.86105625 120.06990559 59.87346914 C110.03856203 59.88010557 100.00730051 59.87844859 89.97596349 59.86488062 C83.27562803 59.85664819 76.57535415 59.85931797 69.87502372 59.87085589 C66.05723433 59.87712425 62.23960525 59.87868241 58.42182501 59.86699256 C54.30658493 59.85450786 50.19172827 59.86527921 46.07648987 59.87826955 C44.89507449 59.87096021 43.71365911 59.86365086 42.49644327 59.85612002 C27.72046881 59.95302986 15.34751317 64.19062934 5.69918388 75.75299966 Z " fill="#1BB0DE" transform="translate(105.0586286187172,253.74700033664703)"/>
<path d="M0 0 C1.54536524 -0.00872064 1.54536524 -0.00872064 3.12194997 -0.01761746 C6.57272013 -0.03221038 10.02277824 -0.0183348 13.47354317 -0.00457001 C15.97310376 -0.00917918 18.47266165 -0.0155322 20.97221386 -0.02347898 C26.40604006 -0.03670318 31.83964878 -0.03749908 37.27347755 -0.02729034 C45.35386585 -0.01215075 53.43412015 -0.01990039 61.51450756 -0.03212357 C75.94718632 -0.05318325 90.37979424 -0.05136216 104.81247973 -0.03980792 C117.44400641 -0.02974532 130.07550711 -0.02711906 142.70703697 -0.0318985 C143.54494809 -0.03220404 144.38285921 -0.03250958 145.24616158 -0.03282438 C148.64754619 -0.03406974 152.04893078 -0.03534334 155.45031536 -0.03666343 C187.35956436 -0.04889998 219.26876825 -0.03780514 251.17801028 -0.01627585 C279.52289348 0.00270316 307.86770479 0.00101105 336.21258736 -0.01811981 C368.06048883 -0.03954313 399.90835045 -0.04802869 431.75625813 -0.03567076 C435.15206217 -0.0343879 438.54786622 -0.03313654 441.94367027 -0.0318985 C442.77979931 -0.03158219 443.61592834 -0.03126588 444.47739462 -0.03093999 C457.09910631 -0.02639173 469.72078917 -0.03170823 482.34249687 -0.04181671 C496.69675078 -0.05325546 511.05092278 -0.05039096 525.40516649 -0.02869374 C533.43693473 -0.01695346 541.46852557 -0.01617467 549.50028918 -0.03127843 C555.4983674 -0.04131295 561.49621588 -0.03041941 567.49428023 -0.01138014 C569.92016383 -0.00691095 572.34607117 -0.00918738 574.7719395 -0.01888329 C578.07051576 -0.0310562 581.36813023 -0.01856153 584.66665649 0 C585.60742005 -0.00936466 586.54818361 -0.01872933 587.51745516 -0.02837777 C596.89239534 0.07698081 605.859638 2.70476605 612.68588448 9.37337494 C621.13050164 19.51666709 621.33025168 29.71437329 621.18573189 42.22602081 C621.18469189 44.02097827 621.18573808 45.81593802 621.18875313 47.61089325 C621.18857475 51.35380275 621.16793687 55.09584115 621.13153267 58.83856964 C621.08612707 63.60849936 621.08508696 68.37716174 621.09856796 73.14724827 C621.10528677 76.84762867 621.09191493 80.54772611 621.07230949 84.2480526 C621.06467504 86.00570376 621.06227981 87.76338658 621.06548119 89.52105141 C621.06926807 101.95023308 620.5832094 113.25356438 611.52557564 122.78070831 C605.69178096 127.64404187 598.69254711 130.62248713 591.09049368 130.63446707 C590.21592838 130.63825171 589.34136309 130.64203635 588.44029582 130.64593568 C587.00285315 130.64456779 587.00285315 130.64456779 585.53637123 130.64317226 C584.51219656 130.64612369 583.48802189 130.64907511 582.43281162 130.65211597 C578.97279911 130.66083442 575.51281993 130.66239011 572.05279732 130.66399384 C569.55826758 130.66872293 567.06373861 130.67387359 564.56921053 130.67941147 C558.41425257 130.69187974 552.25930334 130.69961134 546.10433587 130.70531026 C538.73378142 130.7123666 531.36323953 130.72512476 523.9926931 130.73785945 C505.32962601 130.76971938 486.6665506 130.78954747 468.00346541 130.80714497 C462.94871234 130.81191279 457.89395952 130.81692146 452.8392067 130.8219502 C421.46435033 130.8529964 390.08949184 130.87961483 358.7146244 130.89636898 C351.44490238 130.90030623 344.1751804 130.90431807 336.90545845 130.90839386 C336.00228443 130.90889553 335.09911041 130.9093972 334.16856749 130.90991407 C304.88703896 130.92633132 275.60559401 130.96478681 246.3241066 131.01568096 C216.22263977 131.06790497 186.12121745 131.10068387 156.0197044 131.10794651 C151.76788232 131.1089751 147.51606034 131.11021142 143.26423836 131.11156654 C142.00904719 131.1119536 142.00904719 131.1119536 140.72849862 131.11234848 C127.26333484 131.11704294 113.79828124 131.14197567 100.33315869 131.17431797 C86.79682214 131.2063571 73.26060961 131.21632339 59.72423965 131.20388602 C51.68371659 131.19715078 43.64361961 131.20707496 35.60316317 131.24101303 C29.59659319 131.26451404 23.59049413 131.25659696 17.58389384 131.23654521 C15.15581262 131.23331579 12.72769215 131.24022814 10.29967636 131.25834244 C-15.73706142 131.4408047 -15.73706142 131.4408047 -26.54083061 120.81586456 C-34.40444793 110.60085619 -34.16474107 99.18333275 -34.14239311 86.91352081 C-34.15018543 85.11952576 -34.15885849 83.32553434 -34.16836357 81.53154755 C-34.18321215 77.7870864 -34.18276073 74.04300267 -34.17217827 70.29853058 C-34.16058853 65.52955849 -34.19448401 60.76213991 -34.24086761 55.99342442 C-34.27050606 52.29302381 -34.27206402 48.5929906 -34.26584816 44.89249229 C-34.26686609 43.13562121 -34.27718005 41.37872722 -34.297472 39.62197304 C-34.41474766 28.0528514 -33.68861561 18.35531585 -25.54562187 9.27962494 C-18.21754183 2.11699862 -10.00956094 -0.09914494 0 0 Z " fill="#A6C8DE" transform="translate(222.54083061218262,408.4966354370117)"/>
<path d="M0 0 C1.14496812 -0.00320648 2.28993623 -0.00641296 3.46960035 -0.0097166 C6.65291224 -0.01659617 9.83607379 -0.01450798 13.01938314 -0.00866088 C16.48069409 -0.0044938 19.94198342 -0.01189071 23.40328914 -0.01781338 C29.47155826 -0.02658402 35.53979363 -0.02788443 41.60806751 -0.02431011 C50.63196881 -0.01900888 59.65583737 -0.02509262 68.6797351 -0.03339304 C85.7339404 -0.04864818 102.78813087 -0.05033651 119.84234156 -0.04787002 C133.01192063 -0.04603844 146.18149481 -0.04779413 159.35107327 -0.05209446 C161.24213923 -0.05269686 163.1332052 -0.05329806 165.02427116 -0.05389806 C167.87383775 -0.0548053 170.72340433 -0.05571397 173.57297091 -0.05663041 C200.07408644 -0.06506247 226.57520014 -0.06939395 253.07631683 -0.06522369 C254.07575687 -0.06506732 255.07519691 -0.06491094 256.104923 -0.06474983 C261.17063778 -0.06394403 266.23635254 -0.06309826 271.3020673 -0.06223653 C272.81120231 -0.06197989 272.81120231 -0.06197989 274.35082489 -0.06171808 C276.38538512 -0.06137142 278.41994534 -0.06102289 280.45450556 -0.06067249 C312.10851253 -0.05531591 343.76249164 -0.06324287 375.41649342 -0.08170605 C410.97028851 -0.10241955 446.52406634 -0.1131499 482.07786781 -0.10913056 C485.86859246 -0.10873521 489.65931711 -0.10837366 493.45004177 -0.10803318 C494.38343084 -0.10794245 495.31681991 -0.10785172 496.2784935 -0.10775824 C510.37334093 -0.10659192 524.46817095 -0.11324328 538.56301403 -0.1238451 C554.5935019 -0.13589048 570.62395139 -0.13746379 586.65443983 -0.12505493 C595.62598009 -0.11842118 604.59742861 -0.12006925 613.56896155 -0.13364345 C619.56296852 -0.14188135 625.55690669 -0.13919897 631.55090806 -0.12766818 C634.96533284 -0.12140515 638.37957846 -0.11982786 641.79399296 -0.13153151 C645.47649185 -0.14161692 649.15850865 -0.13323237 652.84098816 -0.12025452 C653.89491344 -0.12756386 654.94883873 -0.13487321 656.03470114 -0.14240405 C668.08926451 -0.0542664 679.04063435 3.01093537 687.99681568 11.36385059 C695.08119467 18.95893343 699.97477761 27.73819873 699.99579334 38.33081532 C700.00287815 39.52639057 700.00996296 40.72196583 700.01726246 41.95377064 C700.01478504 43.2520731 700.01230762 44.55037556 700.00975513 45.88802052 C700.01410617 47.27990968 700.01929063 48.67179645 700.02524281 50.0636797 C700.03860643 53.83463098 700.0392141 57.60548187 700.03667951 61.37645221 C700.03560734 64.53209144 700.04049978 67.68771056 700.04528493 70.84334546 C700.05637242 78.29526425 700.05682272 85.74713263 700.05077076 93.19905567 C700.04473998 100.86526425 700.05702085 108.53128888 700.07834083 116.19746608 C700.09601021 122.79559307 700.10194954 129.39366182 700.09870309 135.99181157 C700.09689752 139.92519845 700.09945269 143.85845429 700.11341763 147.79181957 C700.12607743 151.49619075 700.12397573 155.20027769 700.11100674 158.90464497 C700.1075475 160.8956169 700.1187605 162.88659784 700.13057423 164.87753773 C700.05658869 177.63693622 697.53286894 188.96575338 688.62572193 198.51619434 C678.0022122 208.42536463 667.29901534 210.5669167 653.09825706 210.5117445 C651.94952782 210.51525057 650.80079858 210.51875665 649.61725935 210.52236897 C646.43739366 210.53005313 643.25767712 210.52884012 640.07781078 210.52381342 C636.61503204 210.52053737 633.15227743 210.52883713 629.68950647 210.53563178 C623.62334686 210.54592649 617.55721916 210.54877649 611.49105167 210.54671955 C602.47038433 210.54366826 593.44975228 210.55199629 584.4290918 210.5624688 C567.38122704 210.58180767 550.33337431 210.58743695 533.28549988 210.58858292 C520.12218128 210.58950199 506.95886741 210.59361858 493.79555035 210.59998417 C490.00660895 210.60177924 486.21766754 210.60355887 482.42872614 210.60533392 C481.48679388 210.60577602 480.54486163 210.60621812 479.57438598 210.60667361 C453.08148133 210.61898115 426.58857833 210.62687481 400.0956707 210.62598705 C398.59751989 210.62594032 398.59751989 210.62594032 397.0691034 210.62589264 C392.00691316 210.62572642 386.94472291 210.62552834 381.88253266 210.62532322 C380.87715848 210.62528333 379.8717843 210.62524344 378.83594423 210.62520234 C376.80283407 210.62512147 374.76972391 210.62503787 372.73661375 210.62495156 C341.09554616 210.62372569 309.45452141 210.63874611 277.81346607 210.66609669 C242.26771489 210.69680981 206.72199185 210.71402971 171.17622656 210.71217024 C167.3869708 210.71202098 163.59771504 210.71192357 159.80845928 210.71186161 C158.87544229 210.7118383 157.9424253 210.71181499 156.98113507 210.71179098 C141.96027466 210.71172941 126.93945143 210.72450614 111.91860209 210.74172614 C96.82695567 210.7586697 81.73536372 210.76066641 66.64371306 210.7475075 C57.67636283 210.74011032 48.70917791 210.74379925 39.74184515 210.76339218 C33.75201542 210.77537465 27.76230567 210.77282047 21.77248149 210.75845118 C18.35963389 210.75067356 14.94710663 210.749178 11.53428138 210.76536588 C7.85515169 210.77944327 4.17687822 210.76893343 0.49777794 210.75225353 C-1.08576419 210.76715807 -1.08576419 210.76715807 -2.70129707 210.78236371 C-14.06288275 210.67322682 -24.01122437 206.21153712 -32.24146557 198.37166309 C-42.40393356 187.34430421 -43.56564918 175.7981342 -43.55543041 161.26448536 C-43.5614255 159.87053032 -43.56823328 158.47657858 -43.57578564 157.08263111 C-43.59334914 153.32019791 -43.5981368 149.55785584 -43.59941721 145.7953856 C-43.6008444 143.43956047 -43.6051246 141.0837581 -43.61041164 138.72793865 C-43.62887713 130.49482612 -43.63708628 122.26177808 -43.63550854 114.02864552 C-43.63430677 106.37650942 -43.65542478 98.72465519 -43.68699586 91.07259041 C-43.71321011 84.48206027 -43.72387374 77.89162195 -43.72259772 71.30104011 C-43.72208977 67.37382753 -43.72768025 63.44686601 -43.74895382 59.51970577 C-43.76842458 55.8250865 -43.76840116 52.13095565 -43.75392056 48.4363184 C-43.75085829 46.448744 -43.76744509 44.46116908 -43.78480053 42.4736681 C-43.69991278 30.29079857 -39.85493175 20.17263848 -31.38209057 11.27791309 C-27.1060326 7.33723222 -22.66265606 4.41973392 -17.26490307 2.25447559 C-16.46486376 1.91272464 -15.66482446 1.57097369 -14.84054154 1.21886665 C-9.86216128 -0.12386009 -5.13456484 -0.02118372 0 0 Z M7.23509693 51.83650684 C6.74009693 52.63443653 6.24509693 53.43236622 5.73509693 54.25447559 C5.40417042 54.76827274 5.0732439 55.28206989 4.73228931 55.81143665 C0.35952352 63.84106347 1.15682799 72.81358647 1.20384693 81.68416309 C1.20114749 83.48341042 1.19726132 85.28265632 1.19225025 87.08189869 C1.18637343 90.84252864 1.19485721 94.60277696 1.21361256 98.36336231 C1.23636811 103.15685941 1.22328914 107.94945877 1.1993227 112.74292278 C1.18478716 116.45613186 1.18950658 120.16913229 1.19983387 123.88234806 C1.20248151 125.6483887 1.1993014 127.41444897 1.18991566 129.18046665 C1.14223201 140.67505665 1.40999613 151.04802565 8.73509693 160.56697559 C20.50867176 172.14764084 33.59914845 171.10520424 49.11023426 171.0029192 C51.6123872 171.00840343 54.11453552 171.0165102 56.61667246 171.02700651 C62.04696037 171.04374339 67.47674784 171.04193033 72.90702152 171.02354145 C80.98199433 170.99627213 89.05668385 171.00349535 97.13167749 171.01745866 C111.55527604 171.04128437 125.97869948 171.03116211 140.40228832 171.00690211 C153.02407167 170.98581757 165.64579542 170.97675268 178.26759624 170.97949314 C179.10530115 170.9796612 179.94300605 170.97982926 180.80609594 170.98000242 C184.20672661 170.98070693 187.60735725 170.98147496 191.00798788 170.98233357 C222.89793192 170.99026085 254.78777059 170.96484094 286.67768449 170.92328045 C315.00291951 170.88653912 343.32805353 170.87491704 371.65330982 170.88582325 C373.47224639 170.88651612 375.29118296 170.88720831 377.11011953 170.88789983 C378.00937248 170.88824182 378.90862543 170.88858381 379.83512847 170.88893617 C384.36196304 170.89064328 388.88879763 170.89229085 393.41563225 170.89387417 C394.30873108 170.89418833 395.20182991 170.89450249 396.12199235 170.89482617 C419.79939899 170.90280792 443.47679592 170.89185297 467.15419668 170.87485158 C469.7021795 170.87303753 472.25016233 170.87122623 474.79814515 170.86942112 C476.48836542 170.8682189 478.17858567 170.86700166 479.86880591 170.86576931 C491.64710918 170.85733001 503.42539335 170.8561686 515.20369867 170.85998029 C530.38238709 170.86486801 545.56097317 170.85670822 560.73963363 170.82556029 C568.76474462 170.80947118 576.78968521 170.80424822 584.81480634 170.814845 C590.80781818 170.82150648 596.8005881 170.80723302 602.79356962 170.78479485 C605.21734071 170.77893689 607.64113933 170.77980801 610.06490339 170.78808101 C613.36060453 170.79830902 616.65533076 170.7839012 619.95096397 170.76342678 C620.89086999 170.77221975 621.83077601 170.78101272 622.79916403 170.79007214 C632.31366888 170.67757627 641.0261382 167.96289016 648.01244068 161.32088184 C654.00898741 154.1277453 655.87126192 146.59327575 655.94383717 137.46345997 C655.95362095 136.68235859 655.96340473 135.90125721 655.97348499 135.09648609 C656.0033714 132.51374968 656.02481212 129.93106511 656.04369068 127.34822559 C656.05026251 126.46220158 656.05683434 125.57617756 656.06360531 124.66330433 C656.09617806 119.96812505 656.12062748 115.27296817 656.14012623 110.57771778 C656.15789101 106.709539 656.19263601 102.84209585 656.24266529 98.97420216 C656.3031947 94.28809043 656.33364705 89.60265697 656.34329891 84.91617298 C656.35180323 83.13971528 656.37049564 81.36327322 656.40004253 79.5870409 C656.5844131 67.8671709 655.81847945 58.55656518 647.96140003 49.12544727 C640.25964469 41.59605926 630.36951022 39.64805726 619.95096397 39.74552441 C618.91871239 39.73911145 617.88646081 39.73269849 616.82292888 39.72609121 C613.37737072 39.7095395 609.93251229 39.72132207 606.48694324 39.73308277 C603.98636829 39.72703918 601.48579703 39.71925994 598.98523229 39.70989764 C593.55536851 39.69361918 588.12571558 39.68973429 582.69583607 39.69690418 C574.62129972 39.70753798 566.54690893 39.69530793 558.4723884 39.67873832 C543.21158199 39.64828185 527.95084201 39.64484567 512.69001157 39.64978437 C500.90547068 39.65345155 489.12095155 39.64992772 477.33641338 39.64133549 C475.64256101 39.64013068 473.94870864 39.63892828 472.25485627 39.63772828 C469.7023085 39.63591375 467.14976074 39.63409642 464.59721299 39.63226358 C440.8700184 39.61540829 417.14283199 39.60673062 393.41563225 39.61507702 C392.52144773 39.61538977 391.62726321 39.61570252 390.70598219 39.61602475 C386.17402794 39.61763629 381.64207373 39.61932783 377.11011953 39.62105136 C376.2100782 39.62139353 375.31003687 39.62173571 374.38272156 39.62208825 C372.56262086 39.62278156 370.74252017 39.62347862 368.92241948 39.62417942 C340.59731546 39.63489545 312.27233594 39.61902694 283.94725513 39.58211231 C252.11507255 39.54067552 220.28296708 39.51922608 188.45075601 39.52726328 C185.05636943 39.52805397 181.66198285 39.52877706 178.26759624 39.52945805 C177.01394333 39.52973024 177.01394333 39.52973024 175.73496409 39.53000794 C163.12206659 39.5323392 150.50924701 39.51904865 137.89636898 39.49783421 C123.55204791 39.47373197 109.20789843 39.47061029 94.86357481 39.49541454 C86.8385849 39.50867058 78.81400534 39.50541293 70.78904827 39.47823751 C64.79430059 39.45979966 58.80005158 39.47278554 52.80531042 39.4979331 C50.38215809 39.50324418 47.9589579 39.49844011 45.53585244 39.48246138 C30.28371288 39.38887 17.82382459 39.34511719 7.23509693 51.83650684 Z " fill="#5BB9DE" transform="translate(187.26490306854248,368.7455244064331)"/>
<path d="M0 0 C2.39706123 -0.10854617 4.78915838 -0.18753157 7.1875 -0.25 C7.86103516 -0.28351563 8.53457031 -0.31703125 9.22851562 -0.3515625 C12.87648937 -0.42274248 14.83925071 -0.10121251 17.953125 1.859375 C20 4 20 4 20.5625 6.5 C19.8459104 9.68484266 18.45824857 10.92585277 16 13 C16.825 13.350625 17.65 13.70125 18.5 14.0625 C21 16 21 16 21.625 19.4375 C21 23 21 23 18.98046875 25.20703125 C15.04652804 27.57358274 12.17266242 27.45842578 7.6875 27.25 C6.57665039 27.22292969 6.57665039 27.22292969 5.44335938 27.1953125 C3.6283429 27.14847337 1.81399834 27.07673789 0 27 C0 26.34 0 25.68 0 25 C0.99 25 1.98 25 3 25 C2.67 17.74 2.34 10.48 2 3 C1.34 2.67 0.68 2.34 0 2 C0 1.34 0 0.68 0 0 Z " fill="#667E8F" transform="translate(576,460)"/>
<path d="M0 0 C1.76923828 0.04060547 1.76923828 0.04060547 3.57421875 0.08203125 C4.47785156 0.11683594 5.38148438 0.15164063 6.3125 0.1875 C6.3125 0.8475 6.3125 1.5075 6.3125 2.1875 C4.9925 2.1875 3.6725 2.1875 2.3125 2.1875 C2.6425 4.4975 2.9725 6.8075 3.3125 9.1875 C0.3298113 11.72830889 -1.88301307 12.4677322 -5.6875 13.1875 C-6.0175 13.8475 -6.3475 14.5075 -6.6875 15.1875 C-5.78257812 15.13529297 -5.78257812 15.13529297 -4.859375 15.08203125 C1.57578924 14.86406601 1.57578924 14.86406601 4.875 16.3125 C6.3125 18.1875 6.3125 18.1875 6.8125 21.1875 C6.3125 24.1875 6.3125 24.1875 4.62890625 25.8515625 C1.80951348 27.47758666 -0.0117978 27.5889343 -3.25 27.5625 C-4.67505859 27.57410156 -4.67505859 27.57410156 -6.12890625 27.5859375 C-8.6875 27.1875 -8.6875 27.1875 -10.5390625 25.7890625 C-11.6875 24.1875 -11.6875 24.1875 -11.5 22.1875 C-10.6875 20.1875 -10.6875 20.1875 -8.6875 17.1875 C-8.6875 15.8675 -8.6875 14.5475 -8.6875 13.1875 C-8.6875 12.1975 -8.6875 11.2075 -8.6875 10.1875 C-9.0175 9.8575 -9.3475 9.5275 -9.6875 9.1875 C-10.1478413 3.89357509 -10.1478413 3.89357509 -8.58984375 1.50390625 C-5.75053392 -0.46087283 -3.40308352 -0.10108169 0 0 Z " fill="#647C8C" transform="translate(624.6875,467.8125)"/>
<path d="M0 0 C3.63 0 7.26 0 11 0 C11 0.66 11 1.32 11 2 C10.01 2 9.02 2 8 2 C8.64185745 4.31367222 9.28827392 6.6258957 9.9375 8.9375 C10.11990234 9.59685547 10.30230469 10.25621094 10.49023438 10.93554688 C11.22596101 14.23821173 11.22596101 14.23821173 13 17 C14.65 12.05 16.3 7.1 18 2 C19.32 2 20.64 2 22 2 C24.475 9.425 24.475 9.425 27 17 C29.11044382 13.83433427 29.75552077 11.48802585 30.625 7.8125 C30.88539063 6.72582031 31.14578125 5.63914062 31.4140625 4.51953125 C31.60742188 3.68808594 31.80078125 2.85664063 32 2 C31.01 2 30.02 2 29 2 C29 1.34 29 0.68 29 0 C31.97 0 34.94 0 38 0 C38 0.66 38 1.32 38 2 C37.01 2.66 36.02 3.32 35 4 C33.94073511 6.39463554 33.94073511 6.39463554 33.17578125 9.2265625 C32.86962891 10.2578125 32.56347656 11.2890625 32.24804688 12.3515625 C31.93931641 13.43179687 31.63058594 14.51203125 31.3125 15.625 C30.99216797 16.71296875 30.67183594 17.8009375 30.34179688 18.921875 C29.55131744 21.61186473 28.77120197 24.30443234 28 27 C27.01 27 26.02 27 25 27 C24.16320723 24.37605694 23.33043058 21.75095616 22.5 19.125 C22.26152344 18.37863281 22.02304687 17.63226563 21.77734375 16.86328125 C20 11.2265625 20 11.2265625 20 9 C19.34 9 18.68 9 18 9 C17.81824219 9.71285156 17.63648438 10.42570312 17.44921875 11.16015625 C16.00217222 16.67377458 14.41108634 21.83338642 12 27 C11.34 27 10.68 27 10 27 C9.82984375 26.42894531 9.6596875 25.85789062 9.484375 25.26953125 C8.96721952 23.53926106 8.44601185 21.81019944 7.921875 20.08203125 C7.26837994 17.89725327 6.63495977 15.70642489 6.015625 13.51171875 C5.68046875 12.35285156 5.3453125 11.19398438 5 10 C4.690625 8.906875 4.38125 7.81375 4.0625 6.6875 C3.1798225 3.70833515 3.1798225 3.70833515 0 2 C0 1.34 0 0.68 0 0 Z " fill="#5F7686" transform="translate(261,460)"/>
<path d="M0 0 C2.39706123 -0.10854617 4.78915838 -0.18753157 7.1875 -0.25 C7.86103516 -0.28351563 8.53457031 -0.31703125 9.22851562 -0.3515625 C12.83310954 -0.42189604 14.84738444 -0.09298431 17.94921875 1.796875 C20 4 20 4 20.625 7.5 C20 11 20 11 17.9375 13.4375 C14.38933056 15.32482417 11.96359827 15.31087045 8 15 C8.11398665 16.62580966 8.24155659 18.25067157 8.375 19.875 C8.44460938 20.77992188 8.51421875 21.68484375 8.5859375 22.6171875 C8.79568132 25.17941903 8.79568132 25.17941903 11 27 C7.37 27 3.74 27 0 27 C1.32 26.34 2.64 25.68 4 25 C3.67 17.74 3.34 10.48 3 3 C2.01 2.67 1.02 2.34 0 2 C0 1.34 0 0.68 0 0 Z " fill="#657E8E" transform="translate(645,460)"/>
<path d="M0 0 C3.07504636 2.02822207 4.66581629 3.49753176 5.48046875 7.16015625 C5.73957582 11.35488967 5.33216044 13.49137933 3 17.0625 C-0.32204113 19.2079849 -2.17854622 19.75608948 -6.0625 19.4765625 C-9.61497432 18.60276841 -11.01078114 16.9838283 -13 14 C-13.63997166 11.19092086 -13.63020793 8.81038673 -13 6 C-9.40129212 0.36202432 -6.63748168 -0.67499814 0 0 Z " fill="#5F7787" transform="translate(364,468)"/>
<path d="M0 0 C3.22248111 0.61764221 4.40356232 1.15935656 7 3.3125 C8.84762096 7.00774191 9.08293785 9.09972698 8.4375 13.1875 C6.56356223 16.40833055 5.22569693 18.682767 1.5 19.734375 C-2.41246741 20.00113414 -4.25089905 19.39523397 -7.5625 17.1875 C-9.64699891 14.06075163 -10.31515106 11.9716527 -10.03515625 8.1953125 C-8.75729803 2.76705527 -5.78338878 -0.32448056 0 0 Z " fill="#607888" transform="translate(461.5625,467.8125)"/>
<path d="M0 0 C3.07141749 2.02582856 4.68692009 3.4812878 5.4453125 7.16015625 C5.63819881 11.01145299 5.21151555 13.54937991 3.5625 17.0625 C0.30491242 19.52555402 -1.85476952 19.73070674 -5.87109375 19.47265625 C-8 19 -8 19 -10.5625 17.0625 C-12.50766628 12.9184501 -12.9268405 9.49598944 -12 5 C-8.68934065 0.08417248 -5.82075974 -1.03942138 0 0 Z " fill="#A3C4DA" transform="translate(516,468)"/>
<path d="M0 0 C4.62 0 9.24 0 14 0 C14 0.33 14 0.66 14 1 C11.69 1 9.38 1 7 1 C7.33 8.26 7.66 15.52 8 23 C9.98 23 11.96 23 14 23 C16.25195569 21.18190523 16.25195569 21.18190523 16.1875 18.5625 C16.09695513 15.88060897 16.09695513 15.88060897 15 13 C19.875 13.875 19.875 13.875 21 15 C21.375 18.3125 21.375 18.3125 21 22 C18.90637408 24.3140076 17.23554502 25.79591726 14.08886719 26.31567383 C11.94111168 26.39317276 9.83416979 26.34975588 7.6875 26.25 C6.57665039 26.22292969 6.57665039 26.22292969 5.44335938 26.1953125 C3.6283429 26.14847337 1.81399834 26.07673789 0 26 C0 25.34 0 24.68 0 24 C0.99 24 1.98 24 3 24 C2.89045592 20.37435813 2.7597504 16.74978569 2.625 13.125 C2.5940625 12.09246094 2.563125 11.05992187 2.53125 9.99609375 C2.49257813 9.00996094 2.45390625 8.02382813 2.4140625 7.0078125 C2.3826416 6.09660645 2.3512207 5.18540039 2.31884766 4.24658203 C2.20117489 1.80068814 2.20117489 1.80068814 0 0 Z " fill="#5F7787" transform="translate(576,461)"/>
<path d="M0 0 C3.4375 0.6875 3.4375 0.6875 5.875 2.9375 C7.4375 5.6875 7.4375 5.6875 7.4375 9.6875 C3.4775 9.6875 -0.4825 9.6875 -4.5625 9.6875 C-4.2325 11.9975 -3.9025 14.3075 -3.5625 16.6875 C-0.9225 16.6875 1.7175 16.6875 4.4375 16.6875 C4.7675 16.0275 5.0975 15.3675 5.4375 14.6875 C6.0975 14.6875 6.7575 14.6875 7.4375 14.6875 C5.6875 18.5625 5.6875 18.5625 3.4375 19.6875 C-3.69919065 20.37814748 -3.69919065 20.37814748 -7.0625 17.6875 C-8.94912049 13.91425903 -9.47095837 10.77556268 -8.5625 6.6875 C-6.63271201 2.64860743 -4.48010408 0.86458149 0 0 Z " fill="#617888" transform="translate(762.5625,467.3125)"/>
<path d="M0 0 C3.4375 0.625 3.4375 0.625 5.875 2.3125 C7.4375 4.625 7.4375 4.625 7.4375 9.625 C3.4775 9.625 -0.4825 9.625 -4.5625 9.625 C-3.5725 11.935 -2.5825 14.245 -1.5625 16.625 C3.2272321 16.85928313 3.2272321 16.85928313 7.4375 14.625 C5.5625 18.5 5.5625 18.5 4.4375 19.625 C-2.79212963 20.21759259 -2.79212963 20.21759259 -6 17.75 C-8.8170242 13.91884709 -9.03985369 11.39853686 -8.5625 6.625 C-6.61670314 2.61997419 -4.47498428 0.78508496 0 0 Z " fill="#607888" transform="translate(309.5625,467.375)"/>
<path d="M0 0 C0.99 0.66 1.98 1.32 3 2 C3.99 1.34 4.98 0.68 6 0 C8.72333328 -0.34041666 10.30230607 -0.46512929 12.6171875 1.078125 C14.69221231 3.96205779 14.48716001 6.55483494 14.625 10.0625 C14.65282567 14.6958079 14.65282567 14.6958079 16 19 C13.36 19 10.72 19 8 19 C8.33 18.34 8.66 17.68 9 17 C9.07092842 14.7927077 9.08415025 12.58332548 9.0625 10.375 C9.05347656 9.18648438 9.04445313 7.99796875 9.03515625 6.7734375 C9.02355469 5.85820312 9.01195312 4.94296875 9 4 C7.33388095 3.957279 5.66617115 3.95936168 4 4 C2.19253866 5.80746134 2.82696517 8.50445781 2.8125 10.9375 C2.79123047 12.55978516 2.79123047 12.55978516 2.76953125 14.21484375 C2.70951969 17.14044315 2.70951969 17.14044315 5 19 C2.03 19 -0.94 19 -4 19 C-3.34 18.34 -2.68 17.68 -2 17 C-1.75639927 13.87185486 -1.75639927 13.87185486 -1.875 10.375 C-1.90207031 8.59222656 -1.90207031 8.59222656 -1.9296875 6.7734375 C-1.95289063 5.85820312 -1.97609375 4.94296875 -2 4 C-2.928125 3.7834375 -2.928125 3.7834375 -3.875 3.5625 C-6 3 -6 3 -8 2 C-4.75366476 -0.1642235 -3.75698557 -0.37569856 0 0 Z " fill="#607887" transform="translate(388,468)"/>
<path d="M0 0 C2.375 1.6875 2.375 1.6875 4 4 C4 5.65 4 7.3 4 9 C0.04 9 -3.92 9 -8 9 C-7.01 11.31 -6.02 13.62 -5 16 C-2.36 16 0.28 16 3 16 C3 15.34 3 14.68 3 14 C3.66 14 4.32 14 5 14 C3.25 17.875 3.25 17.875 1 19 C-6.1119334 19.68825162 -6.1119334 19.68825162 -9.5 17.0625 C-11.52484337 12.92844478 -11.93951288 9.51783149 -11 5 C-7.90494929 0.53948574 -5.42331926 -1.03850794 0 0 Z " fill="#5F7786" transform="translate(419,468)"/>
<path d="M0 0 C1.98 0 3.96 0 6 0 C6.33 5.28 6.66 10.56 7 16 C8.65 16 10.3 16 12 16 C13.81119819 14.18880181 13.21518878 11.50218608 13.25 9.0625 C13.27578125 7.98097656 13.3015625 6.89945312 13.328125 5.78515625 C13.21984375 4.86605469 13.1115625 3.94695312 13 3 C12.01 2.34 11.02 1.68 10 1 C12.31 1 14.62 1 17 1 C17.04898438 2.07121094 17.09796875 3.14242188 17.1484375 4.24609375 C17.22345294 5.64325639 17.2990013 7.0403905 17.375 8.4375 C17.4059375 9.14455078 17.436875 9.85160156 17.46875 10.58007812 C17.57280629 12.39239188 17.77919892 14.19817988 18 16 C18.66 16.33 19.32 16.66 20 17 C20 17.66 20 18.32 20 19 C17 19 14 19 11 19 C9.4840625 19.061875 9.4840625 19.061875 7.9375 19.125 C5 19 5 19 3 17 C2.61203696 13.36284647 2.49214455 9.74405955 2.34375 6.08984375 C2.2303125 5.07019531 2.116875 4.05054688 2 3 C1.34 2.67 0.68 2.34 0 2 C0 1.34 0 0.68 0 0 Z " fill="#5C7483" transform="translate(525,468)"/>
<path d="M0 0 C0.99 0.103125 1.98 0.20625 3 0.3125 C5.67548031 4.32572046 5.58740465 7.59623655 5 12.3125 C3.5 14.875 3.5 14.875 2 16.3125 C-0.375 16 -0.375 16 -3 15.3125 C-5.16721782 12.06167327 -5.27221018 11.02017847 -5.25 7.25 C-5.25515625 6.37214844 -5.2603125 5.49429687 -5.265625 4.58984375 C-4.834653 0.89489265 -3.58375496 0.37330781 0 0 Z " fill="#A3C5DB" transform="translate(461,469.6875)"/>
<path d="M0 0 C3.07141749 2.02582856 4.68692009 3.4812878 5.4453125 7.16015625 C5.63819881 11.01145299 5.21151555 13.54937991 3.5625 17.0625 C0.30491242 19.52555402 -1.85476952 19.73070674 -5.87109375 19.47265625 C-8 19 -8 19 -10.5625 17.0625 C-12.50766628 12.9184501 -12.9268405 9.49598944 -12 5 C-8.68934065 0.08417248 -5.82075974 -1.03942138 0 0 Z M-8 4 C-8.3197241 6.56522389 -8.3197241 6.56522389 -8.25 9.4375 C-8.25515625 10.40558594 -8.2603125 11.37367188 -8.265625 12.37109375 C-8.18386997 15.23146113 -8.18386997 15.23146113 -6 18 C-3.54327108 18.66685938 -3.54327108 18.66685938 -1 18 C1.50553676 15.14887196 1.97730838 13.21557035 2.375 9.4375 C1.98346837 5.84846006 1.72443064 4.3486471 -1 2 C-4.48382078 1.49017257 -5.46524232 1.46524232 -8 4 Z " fill="#627A8A" transform="translate(516,468)"/>
<path d="M0 0 C2.875 -0.1875 2.875 -0.1875 6 0 C8.67548031 4.01322046 8.58740465 7.28373655 8 12 C6.5 14.5625 6.5 14.5625 5 16 C2.625 15.6875 2.625 15.6875 0 15 C-2.46934085 11.29598872 -2.44928433 8.29412135 -2 4 C-1 1.5 -1 1.5 0 0 Z " fill="#A4C6DC" transform="translate(357,470)"/>
<path d="M0 0 C2.64 0 5.28 0 8 0 C8 0.66 8 1.32 8 2 C7.34 2 6.68 2 6 2 C6.28875 2.62648438 6.5775 3.25296875 6.875 3.8984375 C7.24625 4.71570313 7.6175 5.53296875 8 6.375 C8.556875 7.59316406 8.556875 7.59316406 9.125 8.8359375 C10 11 10 11 10 13 C10.66 13 11.32 13 12 13 C12.99 9.37 13.98 5.74 15 2 C14.34 1.67 13.68 1.34 13 1 C14.98 1 16.96 1 19 1 C17.59248138 4.21242246 16.17235705 7.41912314 14.75 10.625 C14.35425781 11.52863281 13.95851563 12.43226563 13.55078125 13.36328125 C11.39165528 18.21246582 9.3004632 22.81941328 6 27 C3.25 27.375 3.25 27.375 1 27 C1 25.68 1 24.36 1 23 C1.99 23 2.98 23 4 23 C4 23.66 4 24.32 4 25 C5.94298382 23.39492641 6.91750783 22.2303948 7.7734375 19.83984375 C8.08028918 15.99361669 6.75752515 13.16648814 5.1875 9.75 C4.91357422 9.11320312 4.63964844 8.47640625 4.35742188 7.8203125 C2.92814547 4.25509783 2.92814547 4.25509783 0 2 C0 1.34 0 0.68 0 0 Z " fill="#62798A" transform="translate(482,468)"/>
<path d="M0 0 C2.64 0 5.28 0 8 0 C8.02505615 0.80743652 8.0501123 1.61487305 8.07592773 2.44677734 C8.19165487 6.08968917 8.31448635 9.73232726 8.4375 13.375 C8.47681641 14.64601563 8.51613281 15.91703125 8.55664062 17.2265625 C8.59853516 18.43828125 8.64042969 19.65 8.68359375 20.8984375 C8.72025146 22.01911621 8.75690918 23.13979492 8.79467773 24.29443359 C8.82596013 26.96712771 8.82596013 26.96712771 10 29 C7.03 29 4.06 29 1 29 C1.66 28.34 2.32 27.68 3 27 C3.27808217 24.47622345 3.27808217 24.47622345 3.1953125 21.5546875 C3.18886719 20.47832031 3.18242187 19.40195312 3.17578125 18.29296875 C3.15902344 17.16503906 3.14226562 16.03710938 3.125 14.875 C3.11597656 13.73933594 3.10695313 12.60367187 3.09765625 11.43359375 C3.07403098 8.62218701 3.04109013 5.81119702 3 3 C2.01 2.67 1.02 2.34 0 2 C0 1.34 0 0.68 0 0 Z " fill="#627B8A" transform="translate(319,458)"/>
<path d="M0 0 C1.9375 1.25 1.9375 1.25 3 3 C2.6875 5.1875 2.6875 5.1875 2 7 C1.01 7 0.02 7 -1 7 C-1 5.35 -1 3.7 -1 2 C-3.47266765 2.34444881 -3.47266765 2.34444881 -6 3 C-7.5635348 6.12706959 -7.39958487 9.57982443 -7 13 C-6.01 14.485 -6.01 14.485 -5 16 C-1.91634129 16.2502157 -1.91634129 16.2502157 1 16 C1.33 15.34 1.66 14.68 2 14 C2.66 14 3.32 14 4 14 C2.25 17.875 2.25 17.875 0 19 C-4.29322859 19.48602588 -6.32082639 19.46241608 -9.9375 17 C-12.2472973 13.64029484 -12.68169593 11.91074695 -12.43359375 7.93359375 C-11.75194607 4.89381354 -10.19767713 3.13303956 -8 1 C-5.20129973 -0.39935013 -3.09501208 -0.25265405 0 0 Z " fill="#627A8A" transform="translate(693,468)"/>
<path d="M0 0 C10.375 0 10.375 0 14 1 C14 2.32 14 3.64 14 5 C11.03 4.505 11.03 4.505 8 4 C7.94613371 6.12472576 7.90726929 8.24983652 7.875 10.375 C7.85179687 11.55835938 7.82859375 12.74171875 7.8046875 13.9609375 C7.67133771 17.11153817 7.67133771 17.11153817 10 19 C6.7 19 3.4 19 0 19 C0.66 18.34 1.32 17.68 2 17 C2.24377883 13.64255888 2.24377883 13.64255888 2.125 9.875 C2.10695313 8.59367187 2.08890625 7.31234375 2.0703125 5.9921875 C2.04710937 5.00476563 2.02390625 4.01734375 2 3 C1.34 2.67 0.68 2.34 0 2 C0 1.34 0 0.68 0 0 Z " fill="#647C8C" transform="translate(548,468)"/>
<path d="M0 0 C0.99 0.66 1.98 1.32 3 2 C3.1875 4.625 3.1875 4.625 3 7 C1.68 6.67 0.36 6.34 -1 6 C-1 4.68 -1 3.36 -1 2 C-2.65 2.66 -4.3 3.32 -6 4 C-6.02698189 5.62490954 -6.04638757 7.24994633 -6.0625 8.875 C-6.07410156 9.77992188 -6.08570313 10.68484375 -6.09765625 11.6171875 C-6.16249257 14.0168585 -6.16249257 14.0168585 -5 16 C-0.2102679 16.23428313 -0.2102679 16.23428313 4 14 C2.125 17.875 2.125 17.875 1 19 C-6.09901455 19.69826373 -6.09901455 19.69826373 -9.5 17.0625 C-11.52484337 12.92844478 -11.93951288 9.51783149 -11 5 C-7.85825656 0.47219328 -5.47313527 -0.83286841 0 0 Z " fill="#5F7786" transform="translate(344,468)"/>
<path d="M0 0 C2.64 0 5.28 0 8 0 C7.67 4.29 7.34 8.58 7 13 C8.98 13 10.96 13 13 13 C13 13.33 13 13.66 13 14 C11.35 14 9.7 14 8 14 C8.11398665 15.62580966 8.24155659 17.25067157 8.375 18.875 C8.44460938 19.77992188 8.51421875 20.68484375 8.5859375 21.6171875 C8.79568132 24.17941903 8.79568132 24.17941903 11 26 C7.37 26 3.74 26 0 26 C1.32 25.34 2.64 24.68 4 24 C3.91939409 20.37407004 3.80653183 16.74985598 3.6875 13.125 C3.66494141 12.09246094 3.64238281 11.05992187 3.61914062 9.99609375 C3.58369141 9.00996094 3.54824219 8.02382813 3.51171875 7.0078125 C3.48553467 6.09660645 3.45935059 5.18540039 3.43237305 4.24658203 C3.28968994 3.50520996 3.14700684 2.76383789 3 2 C2.01 1.34 1.02 0.68 0 0 Z " fill="#5B7382" transform="translate(645,461)"/>
<path d="M0 0 C10.375 0 10.375 0 14 1 C14 2.32 14 3.64 14 5 C12.68 5 11.36 5 10 5 C10 4.34 10 3.68 10 3 C9.01 3.66 8.02 4.32 7 5 C6.41518879 7.88595946 6.41518879 7.88595946 6.3125 11.125 C6.24675781 12.22070312 6.18101562 13.31640625 6.11328125 14.4453125 C6.07589844 15.28835938 6.03851562 16.13140625 6 17 C7.32 17.33 8.64 17.66 10 18 C10 18.33 10 18.66 10 19 C6.7 19 3.4 19 0 19 C0.66 18.34 1.32 17.68 2 17 C2.24377883 13.64255888 2.24377883 13.64255888 2.125 9.875 C2.10695313 8.59367187 2.08890625 7.31234375 2.0703125 5.9921875 C2.04710937 5.00476563 2.02390625 4.01734375 2 3 C1.34 2.67 0.68 2.34 0 2 C0 1.34 0 0.68 0 0 Z " fill="#5A7281" transform="translate(737,468)"/>
<path d="M0 0 C6.40818182 -0.36272727 6.40818182 -0.36272727 8.9375 1.1875 C10.38718434 3.66049093 10.42317323 5.17884512 10 8 C8.875 9.8125 8.875 9.8125 7 11 C3.875 11.25 3.875 11.25 1 11 C0 10 0 10 -0.09765625 7.71484375 C-0.08605469 6.79832031 -0.07445312 5.88179688 -0.0625 4.9375 C-0.05347656 4.01839844 -0.04445313 3.09929687 -0.03515625 2.15234375 C-0.02355469 1.44207031 -0.01195312 0.73179687 0 0 Z " fill="#A1C2D8" transform="translate(583,474)"/>
<path d="M0 0 C0.99 0 1.98 0 3 0 C3 1.98 3 3.96 3 6 C4.65 6 6.3 6 8 6 C8 6.33 8 6.66 8 7 C6.35 7 4.7 7 3 7 C3.33 11.95 3.66 16.9 4 22 C5.65 22 7.3 22 9 22 C8.67 22.66 8.34 23.32 8 24 C5.66705225 24.04241723 3.33297433 24.04092937 1 24 C0 23 0 23 -0.09765625 19.40234375 C-0.0909822 17.91403133 -0.07902183 16.42573568 -0.0625 14.9375 C-0.05798828 14.17888672 -0.05347656 13.42027344 -0.04882812 12.63867188 C-0.0370068 10.75908129 -0.01907078 8.87953101 0 7 C-0.99 6.67 -1.98 6.34 -3 6 C-2.01 6 -1.02 6 0 6 C0 4.02 0 2.04 0 0 Z " fill="#5A7180" transform="translate(702,463)"/>
<path d="M0 0 C0.99 0 1.98 0 3 0 C3 1.98 3 3.96 3 6 C4.65 6 6.3 6 8 6 C8 6.33 8 6.66 8 7 C6.35 7 4.7 7 3 7 C3.33 11.95 3.66 16.9 4 22 C5.65 22 7.3 22 9 22 C8.67 22.66 8.34 23.32 8 24 C5.66705225 24.04241723 3.33297433 24.04092937 1 24 C0 23 0 23 -0.09765625 19.40234375 C-0.0909822 17.91403133 -0.07902183 16.42573568 -0.0625 14.9375 C-0.05798828 14.17888672 -0.05347656 13.42027344 -0.04882812 12.63867188 C-0.0370068 10.75908129 -0.01907078 8.87953101 0 7 C-0.99 6.67 -1.98 6.34 -3 6 C-2.01 6 -1.02 6 0 6 C0 4.02 0 2.04 0 0 Z " fill="#5A7180" transform="translate(440,463)"/>
<path d="M0 0 C2.31 0 4.62 0 7 0 C7.33 5.28 7.66 10.56 8 16 C9.65 16.33 11.3 16.66 13 17 C12.67 17.66 12.34 18.32 12 19 C8.625 19.1875 8.625 19.1875 5 19 C2.1697684 14.7546526 2.56483331 10.84347452 2.34375 5.8359375 C2.17359375 4.43214844 2.17359375 4.43214844 2 3 C1.34 2.67 0.68 2.34 0 2 C0 1.34 0 0.68 0 0 Z " fill="#647C8C" transform="translate(713,468)"/>
<path d="M0 0 C2.31 0 4.62 0 7 0 C7.06058594 1.20398438 7.12117187 2.40796875 7.18359375 3.6484375 C7.26799732 5.22397077 7.35264541 6.79949096 7.4375 8.375 C7.47681641 9.1690625 7.51613281 9.963125 7.55664062 10.78125 C7.68893404 15.02601221 7.68893404 15.02601221 9 19 C6.36 19 3.72 19 1 19 C1.33 18.34 1.66 17.68 2 17 C2.07116382 14.62597499 2.08409085 12.24999323 2.0625 9.875 C2.05347656 8.59367187 2.04445313 7.31234375 2.03515625 5.9921875 C2.02355469 5.00476563 2.01195312 4.01734375 2 3 C1.34 2.67 0.68 2.34 0 2 C0 1.34 0 0.68 0 0 Z " fill="#627A8B" transform="translate(601,468)"/>
<path d="M0 0 C2.31 0 4.62 0 7 0 C7 5.61 7 11.22 7 17 C7.66 17 8.32 17 9 17 C9 17.66 9 18.32 9 19 C7.02 19 5.04 19 3 19 C1.85922343 15.57767028 1.90184883 12.91326783 1.9375 9.3125 C1.94652344 8.13300781 1.95554687 6.95351563 1.96484375 5.73828125 C1.97644531 4.83464844 1.98804688 3.93101562 2 3 C1.34 2.67 0.68 2.34 0 2 C0 1.34 0 0.68 0 0 Z " fill="#637B8B" transform="translate(724,468)"/>
<path d="M0 0 C1.65234375 1.078125 1.65234375 1.078125 3 3 C3.22265625 6.28515625 3.22265625 6.28515625 3.0625 10.0625 C2.96949876 12.37322306 2.9341164 14.68834483 3 17 C3.66 17.66 4.32 18.32 5 19 C2.03 19 -0.94 19 -4 19 C-3.34 18.34 -2.68 17.68 -2 17 C-1.75639927 13.87185486 -1.75639927 13.87185486 -1.875 10.375 C-1.90207031 8.59222656 -1.90207031 8.59222656 -1.9296875 6.7734375 C-1.95289063 5.85820312 -1.97609375 4.94296875 -2 4 C-2.928125 3.7834375 -2.928125 3.7834375 -3.875 3.5625 C-6 3 -6 3 -8 2 C-4.76746204 -0.15502531 -3.74849077 -0.46856135 0 0 Z " fill="#5B7382" transform="translate(388,468)"/>
<path d="M0 0 C5 0 5 0 6.875 1.0625 C8.66310335 4.14201133 7.74592606 6.64333273 7 10 C6 11 6 11 2.9375 11.0625 C1.968125 11.041875 0.99875 11.02125 0 11 C0 7.37 0 3.74 0 0 Z " fill="#A3C5DB" transform="translate(653,462)"/>
<path d="M0 0 C1.98 0 3.96 0 6 0 C7.47268518 4.63496265 6.97477793 9.29790575 6.83984375 14.1015625 C6.68390308 17.12858131 6.68390308 17.12858131 9 19 C6.03 19 3.06 19 0 19 C0.66 18.34 1.32 17.68 2 17 C2.30059943 14.63490639 2.49515012 12.25558119 2.625 9.875 C2.69976562 8.59367187 2.77453125 7.31234375 2.8515625 5.9921875 C2.90054687 5.00476563 2.94953125 4.01734375 3 3 C2.01 2.67 1.02 2.34 0 2 C0 1.34 0 0.68 0 0 Z " fill="#5C7483" transform="translate(373,468)"/>
<path d="M0 0 C2.875 -0.125 2.875 -0.125 6 0 C8 2 8 2 8.25 5 C8 8 8 8 6 10 C2.875 10.125 2.875 10.125 0 10 C0 6.7 0 3.4 0 0 Z " fill="#A1C3D8" transform="translate(583,462)"/>
<path d="M0 0 C2.97 0 5.94 0 9 0 C9.33 1.65 9.66 3.3 10 5 C6.54754176 7.30163882 5.05261287 7.34490322 1 7 C0.34 6.34 -0.32 5.68 -1 5 C-0.625 2.375 -0.625 2.375 0 0 Z " fill="#A3C5DA" transform="translate(618,487)"/>
<path d="M0 0 C2.31 0 4.62 0 7 0 C7.04898438 1.13179688 7.09796875 2.26359375 7.1484375 3.4296875 C7.22346514 4.91148339 7.29901297 6.393253 7.375 7.875 C7.4059375 8.62136719 7.436875 9.36773437 7.46875 10.13671875 C7.55643831 14.53473188 7.55643831 14.53473188 10 18 C7.03 18 4.06 18 1 18 C1.66 17.34 2.32 16.68 3 16 C3.30059943 13.63490639 3.49515012 11.25558119 3.625 8.875 C3.69976563 7.59367187 3.77453125 6.31234375 3.8515625 4.9921875 C3.90054688 4.00476563 3.94953125 3.01734375 4 2 C2.68 1.34 1.36 0.68 0 0 Z " fill="#5A7180" transform="translate(668,469)"/>
<path d="M0 0 C2.375 0.3125 2.375 0.3125 5 1 C7.67348144 5.01022217 7.71022805 8.28441606 7 13 C5 16.0625 5 16.0625 3 18 C1.68 17.67 0.36 17.34 -1 17 C-0.01 16.34 0.98 15.68 2 15 C3.19211438 11.42365687 3.25926574 8.75935317 3 5 C1.63002843 2.12853006 1.63002843 2.12853006 0 0 Z " fill="#5C7383" transform="translate(514,469)"/>
<path d="M0 0 C2.97 0 5.94 0 9 0 C9 0.66 9 1.32 9 2 C8.01 2.66 7.02 3.32 6 4 C4.98296827 6.54974153 4.11112741 9.00955554 3.3125 11.625 C3.08755859 12.33140625 2.86261719 13.0378125 2.63085938 13.765625 C2.07772099 15.50742245 1.53759637 17.25334303 1 19 C0.34 19 -0.32 19 -1 19 C0.32 13.39 1.64 7.78 3 2 C2.01 2 1.02 2 0 2 C0 1.34 0 0.68 0 0 Z " fill="#667E8F" transform="translate(290,460)"/>
<path d="M0 0 C1.2065625 0.0309375 1.2065625 0.0309375 2.4375 0.0625 C3.5625 5.8125 3.5625 5.8125 2.4375 8.0625 C0.7875 8.0625 -0.8625 8.0625 -2.5625 8.0625 C-2.94313221 5.7364143 -3.27519945 3.40194736 -3.5625 1.0625 C-2.5625 0.0625 -2.5625 0.0625 0 0 Z " fill="#A0C1D7" transform="translate(621.5625,469.9375)"/>
<path d="M0 0 C2.5625 0.1875 2.5625 0.1875 4.5625 2.1875 C4.5625 3.5075 4.5625 4.8275 4.5625 6.1875 C1.5925 6.1875 -1.3775 6.1875 -4.4375 6.1875 C-3.3735 0.2595 -3.3735 0.2595 0 0 Z " fill="#9BBBD0" transform="translate(415.4375,469.8125)"/>
<path d="M0 0 C2.5 0.125 2.5 0.125 3.5 1.125 C3.54063832 2.79117115 3.542721 4.45888095 3.5 6.125 C0.86 6.125 -1.78 6.125 -4.5 6.125 C-3.43143596 0.1715718 -3.43143596 0.1715718 0 0 Z " fill="#9EBFD4" transform="translate(762.5,469.875)"/>
<path d="M0 0 C2.5 0.125 2.5 0.125 3.5 1.125 C3.54063832 2.79117115 3.542721 4.45888095 3.5 6.125 C0.86 6.125 -1.78 6.125 -4.5 6.125 C-3.43143596 0.1715718 -3.43143596 0.1715718 0 0 Z " fill="#9EBFD5" transform="translate(309.5,469.875)"/>
<path d="M0 0 C2.64 0 5.28 0 8 0 C6.68 0.33 5.36 0.66 4 1 C4.20625 2.11375 4.4125 3.2275 4.625 4.375 C4.74875 5.57125 4.8725 6.7675 5 8 C4.34 8.66 3.68 9.32 3 10 C2.01 9.67 1.02 9.34 0 9 C0.185625 8.071875 0.37125 7.14375 0.5625 6.1875 C1.24123881 2.98656229 1.24123881 2.98656229 0 0 Z " fill="#5B7382" transform="translate(623,469)"/>
<path d="M0 0 C10.375 0 10.375 0 14 1 C14 2.32 14 3.64 14 5 C12.68 5 11.36 5 10 5 C10 4.34 10 3.68 10 3 C9.01 3.33 8.02 3.66 7 4 C6.67 3.01 6.34 2.02 6 1 C4.02 1 2.04 1 0 1 C0 0.67 0 0.34 0 0 Z " fill="#6E8899" transform="translate(737,468)"/>
<path d="M0 0 C5.625 -0.25 5.625 -0.25 9 2 C9.1875 4.625 9.1875 4.625 9 7 C7.68 6.67 6.36 6.34 5 6 C5 4.68 5 3.36 5 2 C3.35 1.67 1.7 1.34 0 1 C0 0.67 0 0.34 0 0 Z " fill="#667F8F" transform="translate(338,468)"/>
<path d="M0 0 C0.33 0.66 0.66 1.32 1 2 C1.66 2 2.32 2 3 2 C3 2.66 3 3.32 3 4 C2.34 4 1.68 4 1 4 C-0.485 9.445 -0.485 9.445 -2 15 C-2.66 14.67 -3.32 14.34 -4 14 C-3.52188823 12.22888156 -3.0424722 10.45811517 -2.5625 8.6875 C-2.29566406 7.70136719 -2.02882813 6.71523438 -1.75390625 5.69921875 C-1.21920575 3.78482474 -0.62855462 1.88566385 0 0 Z " fill="#6B8495" transform="translate(278,465)"/>
<path d="M0 0 C-2 2 -2 2 -4.625 2.125 C-5.40875 2.08375 -6.1925 2.0425 -7 2 C-7.66 3.32 -8.32 4.64 -9 6 C-9.99 6 -10.98 6 -12 6 C-9.40401988 0.00927665 -6.20086134 -0.23399477 0 0 Z " fill="#698293" transform="translate(364,468)"/>
<path d="M0 0 C1.98 0.99 1.98 0.99 4 2 C3.67 3.32 3.34 4.64 3 6 C2.01 6 1.02 6 0 6 C0 4.02 0 2.04 0 0 Z " fill="#5D7484" transform="translate(692,469)"/>
<path d="M0 0 C2.0625 0.4375 2.0625 0.4375 4 1 C4 2.32 4 3.64 4 5 C3.01 5 2.02 5 1 5 C1 4.01 1 3.02 1 2 C0.34 1.67 -0.32 1.34 -1 1 C-0.67 0.67 -0.34 0.34 0 0 Z " fill="#5E7685" transform="translate(558,468)"/>
<path d="M0 0 C-0.99 0.495 -0.99 0.495 -2 1 C-2 1.66 -2 2.32 -2 3 C-3.98 3.33 -5.96 3.66 -8 4 C-7.67 3.01 -7.34 2.02 -7 1 C-4.53721199 -0.231394 -2.7204945 -0.07159196 0 0 Z " fill="#6C8596" transform="translate(399,468)"/>
</svg>
